HIERARCHY
ROOT pelvis
{
  OFFSET 0 100 0
  CHANNELS 6 Xposition Yposition Zposition Zrotation Xrotation Yrotation
  JOINT pelvis_right_femur
  {
    OFFSET -10.78128 -3.44521 -0.5502486
    CHANNELS 3 Zrotation Xrotation Yrotation
    JOINT right_femur_tibia
    {
      OFFSET -0.8047443 -44.0398 -0.1307829
      CHANNELS 3 Zrotation Xrotation Yrotation
      JOINT right_tibia_foot
      {
        OFFSET 3.006224 -47.83518 -5
        CHANNELS 3 Zrotation Xrotation Yrotation
        End Site
        {
          OFFSET 0 -5 15
        }
      }
    }
  }
  JOINT pelvis_left_femur
  {
    OFFSET 10.78128 -3.44521 -0.5502486
    CHANNELS 3 Zrotation Xrotation Yrotation
    JOINT left_femur_tibia
    {
      OFFSET 0.8047443 -44.0398 -0.1307829
      CHANNELS 3 Zrotation Xrotation Yrotation
      JOINT left_tibia_foot
      {
        OFFSET -4.370144 -48.10324 -4.275266
        CHANNELS 3 Zrotation Xrotation Yrotation
        End Site
        {
          OFFSET 0 -5 15
        }
      }
    }
  }
  JOINT pelvis_spine1
  {
    OFFSET 0 6.468898 -3.129235
    CHANNELS 3 Zrotation Xrotation Yrotation
    JOINT spine1
    {
      OFFSET 0 23.15396 4.99043
      CHANNELS 3 Zrotation Xrotation Yrotation
      JOINT spine2
      {
        OFFSET 0 20.79997 -5.064912
        CHANNELS 3 Zrotation Xrotation Yrotation
        JOINT neck
        {
          OFFSET 0 14.38658 9.616178
          CHANNELS 3 Zrotation Xrotation Yrotation
          End Site
          {
            OFFSET 0 20 0
          }
        }
      }
      JOINT right_manubrium
      {
        OFFSET -5.722621 16.35077 3.967754
        CHANNELS 3 Zrotation Xrotation Yrotation
        JOINT right_clavicle
        {
          OFFSET -13.16364 1.694482 -4.693211
          CHANNELS 3 Zrotation Xrotation Yrotation
          JOINT right_humerus
          {
            OFFSET -28.5034 -0.3100689 -2.792744
            CHANNELS 3 Zrotation Xrotation Yrotation
            JOINT right_radius
            {
              OFFSET -25.15693 0.02248979 -1.271978
              CHANNELS 3 Zrotation Xrotation Yrotation
              End Site
              {
                OFFSET -15 0 0
              }
            }
          }
        }
      }
      JOINT left_manubrium
      {
        OFFSET 5.722621 16.35077 3.967754
        CHANNELS 3 Zrotation Xrotation Yrotation
        JOINT left_clavicle
        {
          OFFSET 13.16364 1.694482 -4.693211
          CHANNELS 3 Zrotation Xrotation Yrotation
          JOINT left_humerus
          {
            OFFSET 29.39168 -1.063119 -2.237045
            CHANNELS 3 Zrotation Xrotation Yrotation
            JOINT left_radius
            {
              OFFSET 24.59957 -0.9528479 0.9047498
              CHANNELS 3 Zrotation Xrotation Yrotation
              End Site
              {
                OFFSET 15 -0 -0
              }
            }
          }
        }
      }
    }
  }
}
MOTION
Frames: 17
Frame Time: 0.0416666666667
232.0743 109.7357 3362.488 1.427805 -12.50084 1.130715 -0.001543817 2.31019 -4.524253 -0 45.76377 -0 -7.931012 14.29291 -1.846691 -4.793357 1.456918 -5.987071 -0 10.32564 -0 1.908618 -12.87357 17.2347 -1.469679 -1.922907 3.375065 -1.911983 13.86124 -4.497916 2.206959 24.10673 4.785257 1.371496 -17.94344 7.311188 -5.446764 -22.15577 10.4643 95.92264 11.5201 -13.2389 -0 0 12.26855 -29.79938 8.866423 15.33955 4.64844 -22.23718 -8.129819 -87.8623 15.14215 18.51504 0 0 -12.01326 9.267948 14.08982 2.181013
232.8827 110.5329 3369.319 1.294356 -11.6423 1.999208 0.3287809 -3.166889 -4.955707 -0 41.41318 -0 -8.842474 14.22401 -1.810737 -5.023775 5.5561 -6.507787 -0 10.75973 -0 2.525072 -13.981 16.80169 -1.292162 -2.130238 2.888698 -1.351574 13.93287 -5.255943 2.099617 23.91549 4.967702 1.449189 -18.71659 7.466821 -5.387822 -21.7358 10.57209 96.66142 11.88675 -15.33392 -0 0 10.55654 -28.62959 9.131074 14.44356 4.982331 -23.43218 -8.27967 -87.07651 14.85686 16.93363 0 0 -14.66765 10.711 14.67103 0.4960913
233.5874 111.0618 3376.016 0.9878895 -10.71289 2.714004 0.9364794 -8.642769 -5.470966 -0 34.87751 -0 -10.12688 13.73602 -1.596441 -4.960797 9.270757 -6.783602 -0 11.97456 -0 3.215919 -14.7879 16.28851 -0.9454156 -2.39631 2.476505 -0.7176268 14.13391 -6.075332 1.978674 23.66025 5.07244 1.489287 -19.62035 7.562545 -5.505115 -21.52999 10.73205 97.5589 12.07111 -17.54335 -0 0 8.839858 -27.45728 9.512299 13.54096 5.337143 -24.90026 -8.471617 -86.33966 14.19752 15.4978 0 0 -17.66779 12.58208 15.33451 -1.70782
234.152 111.3038 3382.629 0.5738148 -9.87764 3.25154 1.690128 -13.78555 -6.055231 -0 27.21652 -0 -11.63978 13.18856 -1.281291 -4.710865 12.57698 -6.797921 -0 13.96855 -0 3.880689 -15.28526 15.68225 -0.476053 -2.691894 2.125892 -0.08450238 14.45411 -6.889672 1.863823 23.3937 5.101227 1.491959 -20.52773 7.599677 -5.809538 -21.47222 10.9195 98.63123 11.94208 -19.72869 -0 0 7.108787 -26.45311 9.951788 12.70339 5.674065 -26.52806 -8.73212 -85.64657 13.21066 14.1816 0 0 -20.7725 14.73364 15.96592 -4.248007
234.5609 111.3103 3389.239 0.1446254 -9.289182 3.612165 2.471247 -18.05605 -6.633625 -0 19.65021 -0 -13.13393 12.81699 -0.9713872 -4.370388 15.25234 -6.52105 -0 16.87128 -0 4.331 -15.40473 14.97868 0.0522362 -2.957757 1.854442 0.462711 14.84652 -7.602339 1.778107 23.169 5.055376 1.462303 -21.27275 7.572061 -6.244826 -21.4656 11.10808 99.7679 11.48369 -21.66968 -0 0 5.442999 -25.76258 10.39559 12.01135 5.936735 -28.10498 -9.048354 -85.02014 12.04495 12.99834 0 0 -23.63547 16.8376 16.42213 -6.737265
234.8293 111.2057 3395.954 -0.1920923 -9.093439 3.818368 3.181014 -20.76728 -7.098958 -0 13.51056 -0 -14.2967 12.7803 -0.7869842 -4.023852 16.93633 -5.911826 -0 20.88229 -0 4.327237 -15.03463 14.18541 0.5645048 -3.114731 1.698882 0.8280441 15.24199 -8.093221 1.747023 23.03959 4.935686 1.409097 -21.66393 7.469437 -6.712186 -21.3955 11.27124 100.7864 10.76785 -23.09954 -0 0 3.985681 -25.51801 10.79074 11.55425 6.060246 -29.35476 -9.382742 -84.49229 10.91828 11.98648 0 0 -25.83617 18.43433 16.58346 -8.644387
234.9989 111.1592 3402.893 -0.3684106 -9.33479 3.900853 3.78353 -21.44935 -7.349122 -0 9.59475 -0 -14.89529 13.04029 -0.8091047 -3.699222 17.31109 -4.977554 -0 26.02538 -0 3.730435 -14.10324 13.35145 1.00292 -3.105823 1.69695 0.9568656 15.57321 -8.280956 1.783016 23.02793 4.747774 1.343299 -21.59394 7.288443 -7.105179 -21.19583 11.3947 101.5048 9.955944 -23.83742 -0 0 2.900687 -25.74658 11.10674 11.38085 6.010592 -30.0636 -9.678467 -84.09734 10.03497 11.21193 0 0 -27.07949 19.16426 16.41931 -9.557749
235.1171 111.3176 3410.126 -0.4036003 -9.873469 3.876793 4.326759 -20.16128 -7.322301 -0 7.602035 -0 -14.91289 13.25477 -1.026323 -3.330687 16.25393 -3.831522 -0 31.88304 -0 2.640878 -12.66485 12.59227 1.350918 -2.937135 1.873426 0.8833914 15.79715 -8.179242 1.870996 23.09825 4.506545 1.274476 -21.13899 7.041839 -7.347362 -20.91881 11.4841 101.7969 9.276352 -23.88483 -0 0 2.343308 -26.29509 11.35311 11.45967 5.816616 -30.19621 -9.865374 -83.88122 9.504334 10.7878 0 0 -27.36369 18.99327 15.99994 -9.436876
235.2199 111.7375 3417.638 -0.3790187 -10.44455 3.739089 4.880875 -17.37006 -7.011475 -0 6.526117 -0 -14.51311 12.91627 -1.336842 -2.808141 13.8331 -2.672518 -0 37.55767 -0 1.355597 -10.9135 12.06883 1.615678 -2.669979 2.235046 0.7039654 15.89459 -7.873469 1.974484 23.17608 4.237715 1.208394 -20.5153 6.758672 -7.401406 -20.71749 11.55399 101.588 8.963139 -23.36037 -0 0 2.459469 -26.89699 11.56025 11.70913 5.552022 -29.85848 -9.874628 -83.90754 9.348487 10.87208 0 0 -26.89003 18.15881 15.45353 -8.547434
235.33 112.3595 3425.333 -0.3729189 -10.80305 3.468357 5.457264 -13.63737 -6.468567 -0 5.514212 -0 -13.91128 11.65618 -1.59585 -2.075594 10.2594 -1.703136 -0 41.9015 -0 0.2162677 -9.130441 11.92539 1.796797 -2.38405 2.763865 0.510266 15.86359 -7.457886 2.055213 23.19479 3.974861 1.146749 -19.95232 6.477954 -7.267562 -20.76177 11.61221 100.854 9.165063 -22.38187 -0 0 3.356577 -27.32126 11.74429 12.0575 5.292116 -29.19206 -9.666753 -84.24059 9.540391 11.61131 0 0 -25.86922 16.97146 14.9215 -7.236727
235.4643 113.0357 3433.075 -0.4201239 -10.8433 3.056982 5.993241 -9.475702 -5.816083 -0 4.298245 -0 -13.30201 9.50596 -1.672145 -1.186487 5.917314 -1.043256 -0 43.95134 -0 -0.5102531 -7.59629 12.21513 1.886754 -2.151951 3.404552 0.3475927 15.73311 -7.003473 2.090117 23.12964 3.748822 1.086484 -19.59892 6.238103 -7.005635 -21.1597 11.65655 99.68348 9.834569 -21.04281 -0 0 5.003449 -27.49161 11.89396 12.47282 5.085405 -28.34312 -9.270452 -84.90117 9.978164 13.03777 0 0 -24.46343 15.72411 14.5283 -5.835556
235.6395 113.5983 3440.74 -0.5085825 -10.62836 2.523742 6.404624 -5.255687 -5.209639 -0 3.120111 -0 -12.81069 6.883327 -1.50467 -0.2663045 1.283934 -0.6918283 -0 43.36694 -0 -0.7101644 -6.476694 12.87611 1.887366 -2.018418 4.078123 0.2090512 15.56213 -6.547193 2.078867 23.00233 3.57399 1.021356 -19.48354 6.062215 -6.725958 -21.91691 11.67971 98.28259 10.73002 -19.43115 -0 0 7.200002 -27.50328 11.98285 12.96072 4.944089 -27.44554 -8.779365 -85.83955 10.49032 15.02588 0 0 -22.79269 14.63661 14.34633 -4.598246
235.8745 113.9172 3448.246 -0.6072878 -10.28741 1.905134 6.651767 -1.113563 -4.742777 -0 2.325823 -0 -12.4627 4.219701 -1.112293 0.587091 -3.327042 -0.5747619 -0 40.43256 -0 -0.4232257 -5.772126 13.80093 1.811701 -1.988966 4.729626 0.06533592 15.39997 -6.093565 2.034931 22.84961 3.446197 0.9468284 -19.55099 5.950918 -6.515399 -22.96793 11.67603 96.83698 11.61046 -17.61455 -0 0 9.724766 -27.4983 11.99371 13.53772 4.85474 -26.57101 -8.280133 -86.97795 10.93759 17.39765 0 0 -20.92148 13.78769 14.37752 -3.621102
236.1904 113.911 3455.535 -0.6960889 -9.895588 1.236627 6.752561 2.96512 -4.409961 -0 2.022938 -0 -12.21769 1.672967 -0.5494498 1.346649 -7.846597 -0.6206938 -0 35.67352 -0 0.2418242 -5.389796 14.90988 1.67565 -2.04388 5.347828 -0.09818658 15.25882 -5.636342 1.970186 22.69096 3.354509 0.863154 -19.74012 5.891606 -6.38916 -24.23619 11.64644 95.4106 12.38875 -15.63435 -0 0 12.45634 -27.53671 11.93109 14.20033 4.799708 -25.72531 -7.80169 -88.26516 11.27515 20.02989 0 0 -18.88237 13.13857 14.5804 -2.864348
236.6065 113.5333 3462.564 -0.7680323 -9.459849 0.5439875 6.744714 6.971987 -4.141998 -0 2.123246 -0 -12.00812 -0.8021096 0.1178718 2.01403 -12.28127 -0.793815 -0 29.64444 -0 1.159411 -5.233028 16.14875 1.490584 -2.153615 5.939862 -0.2726721 15.11928 -5.178283 1.890999 22.52828 3.29287 0.7767131 -20.01112 5.871194 -6.30194 -25.63621 11.59842 93.97798 13.10979 -13.53771 -0 0 15.32884 -27.58341 11.81457 14.91114 4.766755 -24.88473 -7.329799 -89.66919 11.53436 22.82599 0 0 -16.72522 12.59674 14.89527 -2.223403
237.1333 112.773 3469.303 -0.8170163 -8.977224 -0.1542003 6.647433 10.76224 -3.849623 -0 2.566799 -0 -11.75007 -3.230744 0.7987695 2.564413 -16.50849 -1.083593 -0 23.05103 -0 2.165163 -5.23122 17.43893 1.262634 -2.279363 6.49763 -0.4376481 14.9477 -4.737421 1.804661 22.36463 3.263117 0.7010544 -20.3187 5.880662 -6.17775 -27.02591 11.54392 92.51076 13.85556 -11.42709 -0 0 18.2091 -27.56472 11.66792 15.59786 4.744887 -24.02779 -6.846132 -91.12407 11.79079 25.61161 0 0 -14.55727 12.04785 15.23764 -1.565964
237.764 111.6775 3475.76 -0.8292342 -8.507492 -0.8380287 6.445178 14.04834 -3.471236 -0 3.509777 -0 -11.36395 -5.412382 1.368678 2.924427 -20.16783 -1.472923 -0 16.90434 -0 3.031046 -5.332988 18.63425 0.9985001 -2.372552 6.977258 -0.5812031 14.7213 -4.341447 1.727144 22.22355 3.269944 0.6540606 -20.57742 5.913184 -5.95495 -28.18058 11.49367 91.07142 14.63849 -9.491274 -0 0 20.80554 -27.45147 11.50806 16.17133 4.717598 -23.16073 -6.367738 -92.47854 12.12873 28.06507 0 0 -12.5508 11.38687 15.49098 -0.769866
